<svg xmlns="http://www.w3.org/2000/svg" viewBox="0 0 3000 3000" width="3000" height="3000" style="width: 100%; height: 100%; transform: translate3d(0px, 0px, 0px);" preserveAspectRatio="xMidYMid slice"><defs><clipPath id="__lottie_element_2"><rect width="3000" height="3000" x="0" y="0"></rect></clipPath><clipPath id="__lottie_element_4"><path d="M0,0 L2188,0 L2188,2619 L0,2619z"></path></clipPath></defs><g clip-path="url(#__lottie_element_2)"><g clip-path="url(#__lottie_element_4)" style="display: block;" transform="matrix(-1.3811185359954834,1.2005881071090698,1.2005881071090698,1.3811185359954834,2454.773681640625,-1438.01806640625)" opacity="1"><g style="display: block;" transform="matrix(0.9994114637374878,0.034303538501262665,-0.034303538501262665,0.9994114637374878,652.4569702148438,516.1041259765625)" opacity="1"><g opacity="1" transform="matrix(1,0,0,1,125.85600280761719,191.25)"><path fill="rgb(222,227,243)" fill-opacity="1" d=" M104.53800201416016,-181.66600036621094 C104.53800201416016,-181.66600036621094 125.60600280761719,-132.03900146484375 76.33300018310547,-94.18599700927734 C27.059999465942383,-56.33300018310547 7.059999942779541,39.11899948120117 7.059999942779541,39.11899948120117 C7.059999942779541,39.11899948120117 -9.607000350952148,129 -9.607000350952148,129 C-9.607000350952148,129 -106.93900299072266,191 -116.27300262451172,125 C-125.60600280761719,59 -92.27300262451172,-33.66600036621094 -92.27300262451172,-33.66600036621094 C-92.27300262451172,-33.66600036621094 -36.939998626708984,-112.88800048828125 15.0600004196167,-142.27699279785156 C67.05999755859375,-171.66600036621094 73.8280029296875,-191 73.8280029296875,-191 C73.8280029296875,-191 104.53800201416016,-181.66600036621094 104.53800201416016,-181.66600036621094z"></path></g></g><g style="display: block;" transform="matrix(0.9994114637374878,0.034303538501262665,-0.034303538501262665,0.9994114637374878,634.8665771484375,442.6435241699219)" opacity="1"><g opacity="1" transform="matrix(1,0,0,1,429.010009765625,407.9209899902344)"><path fill="rgb(210,220,238)" fill-opacity="1" d=" M391.32000732421875,-158.13999938964844 C324.2699890136719,-305.22900390625 174.2790069580078,-407.6700134277344 0,-407.6700134277344 C-236.80099487304688,-407.6700134277344 -428.760009765625,-218.55099487304688 -428.760009765625,14.729000091552734 C-428.760009765625,162.0989990234375 -359.5509948730469,291.489990234375 -243.44000244140625,367.05999755859375 C-197.4709930419922,396.989990234375 -14.600000381469727,407.6700134277344 119.60900115966797,396.90899658203125 C183.0500030517578,391.8290100097656 235.60899353027344,381.96099853515625 257.7099914550781,367.05999755859375 C370.57000732421875,290.9800109863281 428.760009765625,159.6300048828125 428.760009765625,14.729000091552734 C428.760009765625,-46.86000061035156 415.3800048828125,-105.37999725341797 391.32000732421875,-158.13999938964844z M-246.86000061035156,-204.7790069580078 C-255.9499969482422,-193.56900024414062 -266.47100830078125,-183.55999755859375 -275.260009765625,-172.10899353027344 C-291.6300048828125,-150.73899841308594 -301.5190124511719,-124.47100067138672 -303.2900085449219,-97.61000061035156 C-304.3909912109375,-80.88099670410156 -302.5,-63.58000183105469 -308.0299987792969,-47.76100158691406 C-312.760009765625,-34.191001892089844 -325.6499938964844,-22.038999557495117 -339.2900085449219,-22.038999557495117 C-341.57000732421875,-22.038999557495117 -343.8699951171875,-22.3700008392334 -346.1499938964844,-23.10099983215332 C-355.2799987792969,-26 -361.6600036621094,-34.19900131225586 -366.4800109863281,-42.48899841308594 C-387.9599914550781,-79.48899841308594 -387.6300048828125,-127.01100158691406 -368.6700134277344,-165.3509979248047 C-340.5,-222.3300018310547 -297.32000732421875,-251.11900329589844 -264.82000732421875,-251.11900329589844 C-264.1700134277344,-251.11900329589844 -263.510009765625,-251.11000061035156 -262.8599853515625,-251.09100341796875 C-250.9709930419922,-250.66000366210938 -238.42999267578125,-243.0500030517578 -236.5189971923828,-231.3000030517578 C-234.9499969482422,-221.63999938964844 -240.6999969482422,-212.38999938964844 -246.86000061035156,-204.7790069580078z M-198.8699951171875,-277.1310119628906 C-205,-270.760986328125 -212.69000244140625,-265.4490051269531 -221.4199981689453,-264.05999755859375 C-222.67999267578125,-263.8590087890625 -223.9199981689453,-263.760009765625 -225.14100646972656,-263.760009765625 C-241.6699981689453,-263.760009765625 -254.17999267578125,-281.3810119628906 -243.99000549316406,-296.70001220703125 C-238.80999755859375,-304.489990234375 -226.5189971923828,-308.510009765625 -215.30099487304688,-308.510009765625 C-208.8699951171875,-308.510009765625 -202.80099487304688,-307.1889953613281 -198.5989990234375,-304.510009765625 C-195.39100646972656,-302.4590148925781 -192.6199951171875,-299.4700012207031 -191.58999633789062,-295.80999755859375 C-189.6999969482422,-289.05999755859375 -194.00999450683594,-282.1709899902344 -198.8699951171875,-277.1310119628906z"></path></g></g><g style="display: block;" transform="matrix(0.9994114637374878,0.034303538501262665,-0.034303538501262665,0.9994114637374878,1108.3629150390625,708.5736083984375)" opacity="1"><g opacity="1" transform="matrix(1,0,0,1,5.15500020980835,543.0250244140625)"><path fill="rgb(158,161,171)" fill-opacity="1" d=" M-4.90500020980835,-1.3250000476837158 C-4.90500020980835,-1.3250000476837158 -1.4259999990463257,-0.2750000059604645 4.90500020980835,1.3250000476837158 C-1.5750000476837158,0.004999999888241291 -4.90500020980835,-1.3250000476837158 -4.90500020980835,-1.3250000476837158z"></path></g><g opacity="1" transform="matrix(1,0,0,1,192.76499938964844,277.7749938964844)"><path fill="rgb(158,161,171)" fill-opacity="1" d=" M182.6649932861328,-104.65499877929688 C182.6649932861328,40.244998931884766 124.47599792480469,171.59500122070312 11.614999771118164,247.6750030517578 C-10.484999656677246,262.57501220703125 -63.04499816894531,272.44500732421875 -126.48500061035156,277.5249938964844 C-151.65499877929688,273.94500732421875 -171.53500366210938,269.406005859375 -182.6649932861328,266.5849914550781 C-160.03500366210938,271.2250061035156 -99.11399841308594,275.8550109863281 -6.895999908447266,224.5749969482422 C124.01499938964844,151.76499938964844 159.90499877929688,-113.1449966430664 153.7449951171875,-176.2550048828125 C150.7550048828125,-206.875 147.63600158691406,-245.6750030517578 145.2259979248047,-277.5249938964844 C169.28500366210938,-224.76499938964844 182.6649932861328,-166.2449951171875 182.6649932861328,-104.65499877929688z"></path></g></g><g style="display: block;" transform="matrix(1,0,0,1,953.6100463867188,1134.2510986328125)" opacity="1"><g opacity="1" transform="matrix(1,0,0,1,97.11199951171875,74.55400085449219)"><path fill="rgb(88,80,160)" fill-opacity="1" d=" M-92,15.847999572753906 C-92.25900268554688,19.493999481201172 -92.51499938964844,23.267000198364258 -91.89700317382812,26.783000946044922 C-91.2760009765625,30.31399917602539 -89.8270034790039,33.24399948120117 -88.2229995727539,35.67599868774414 C-83.82599639892578,42.34199905395508 -78.17400360107422,45.91400146484375 -72.60399627685547,48.97999954223633 C-26.565000534057617,74.30400085449219 24.04800033569336,74.0999984741211 70.01699829101562,48.40399932861328 C74.37000274658203,45.970001220703125 78.78199768066406,43.21900177001953 82.30899810791016,38.18199920654297 C93.23600006103516,22.579999923706055 91.43900299072266,-6.701000213623047 88.6510009765625,-30.719999313354492 C87.90799713134766,-37.11399841308594 87.06400299072266,-43.862998962402344 84.48999786376953,-48.63100051879883 C82.71099853515625,-51.926998138427734 80.27999877929688,-53.91999816894531 77.86499786376953,-55.61800003051758 C51.2869987487793,-74.30400085449219 21.31800079345703,-65.72200012207031 -7.165999889373779,-59.78099822998047 C-27.575000762939453,-55.52199935913086 -48.09199905395508,-52.78499984741211 -68.63700103759766,-51.566001892089844 C-78.48899841308594,-50.98099899291992 -85.91999816894531,-67.64700317382812 -89.5459976196289,-52.49100112915039 C-93.23600006103516,-37.06100082397461 -90.81199645996094,-0.8230000138282776 -92,15.847999572753906z"></path></g><g opacity="1" transform="matrix(1,0,0,1,99.10199737548828,46.709999084472656)"><path fill="rgb(43,41,109)" fill-opacity="1" d=" M76.4489974975586,34.99300003051758 C80.8949966430664,33.5880012512207 89.75499725341797,35.698001861572266 90.08100128173828,29.658000946044922 C90.41500091552734,23.465999603271484 90.70800018310547,14.86400032043457 90.36799621582031,8.918999671936035 C89.78600311279297,-1.2799999713897705 88.43099975585938,-11.385000228881836 86.33899688720703,-21.149999618530273 C85.58499908447266,-24.666000366210938 84.61199951171875,-28.381000518798828 82.52400207519531,-30.430999755859375 C80.60700225830078,-32.3129997253418 78.1500015258789,-32.39400100708008 75.84500122070312,-32.37200164794922 C51.16400146484375,-32.1510009765625 26.631999969482422,-27.75 2.052999973297119,-24.964000701904297 C-10.312999725341797,-23.565000534057617 -22.709999084472656,-22.490999221801758 -35.11600112915039,-22.631999969482422 C-46.742000579833984,-22.764999389648438 -70.08499908447266,-35.69900131225586 -81.44599914550781,-34.19599914550781 C-98.85199737548828,-31.893999099731445 -93.78600311279297,1.1230000257492065 -78.49099731445312,14.364999771118164 C-58.672000885009766,31.523000717163086 48.55400085449219,17.756999969482422 71.0009994506836,20.910999298095703 C98.85199737548828,24.823999404907227 76.4489974975586,34.99300003051758 76.4489974975586,34.99300003051758z"></path></g></g><g style="display: block;" transform="matrix(0.9994114637374878,0.034303538501262665,-0.034303538501262665,0.9994114637374878,808.801025390625,537.7330322265625)" opacity="1"><g opacity="1" transform="matrix(1,0,0,1,256.4429931640625,331.25201416015625)"><path fill="rgb(88,80,160)" fill-opacity="1" d=" M-231.72900390625,108.77799987792969 C-230.46400451660156,112.00399780273438 -229.156005859375,115.1449966430664 -227.76100158691406,118.28600311279297 C-227.76100158691406,118.28600311279297 -227.76100158691406,118.3280029296875 -227.76100158691406,118.3280029296875 C-223.22500610351562,128.79400634765625 -218.12399291992188,138.9980010986328 -212.4980010986328,148.85299682617188 C-194.5760040283203,180.16400146484375 -171.20199584960938,208.20199584960938 -143.4239959716797,231.53199768066406 C-143.4239959716797,231.53199768066406 -59.17499923706055,302.3500061035156 -59.17499923706055,302.3500061035156 C-25.118000030517578,331.0010070800781 24.72599983215332,330.5199890136719 58.25899887084961,301.260009765625 C58.25899887084961,301.260009765625 150.79400634765625,220.45700073242188 150.79400634765625,220.45700073242188 C169.41400146484375,204.23399353027344 185.94200134277344,185.83099365234375 200.0709991455078,165.77200317382812 C203.73399353027344,160.58399963378906 207.2220001220703,155.30599975585938 210.53599548339844,149.89999389648438 C210.53599548339844,149.89999389648438 210.5800018310547,149.85499572753906 210.5800018310547,149.85499572753906 C214.11300659179688,144.05599975585938 217.47000122070312,138.1699981689453 220.60899353027344,132.10899353027344 C223.00799560546875,127.7040023803711 225.23199462890625,123.16799926757812 227.36900329589844,118.58999633789062 C230.07200622558594,112.83300018310547 232.6020050048828,106.94599914550781 234.91400146484375,100.9729995727539 C248.95399475097656,65.1719970703125 256.1929931640625,27.014999389648438 256.1929931640625,-11.447999954223633 C256.1929931640625,-11.447999954223633 256.1929931640625,-74.85299682617188 256.1929931640625,-74.85299682617188 C256.1929931640625,-84.7509994506836 255.62600708007812,-94.5199966430664 254.53700256347656,-104.11299896240234 C247.82000732421875,-163.1580047607422 221.00100708007812,-216.0970001220703 181.14500427246094,-255.9980010986328 C134.7899932861328,-302.3089904785156 70.7750015258789,-331.0010070800781 0,-331.0010070800781 C-128.77200317382812,-331.0010070800781 -235.34800720214844,-235.9810028076172 -253.44500732421875,-112.26699829101562 C-253.88099670410156,-109.56400299072266 -254.22999572753906,-106.86100006103516 -254.53599548339844,-104.11299896240234 C-254.53599548339844,-104.11299896240234 -254.53599548339844,-104.06900024414062 -254.53599548339844,-104.06900024414062 C-255.625,-94.4749984741211 -256.1929931640625,-84.7509994506836 -256.1929931640625,-74.85299682617188 C-256.1929931640625,-74.85299682617188 -256.1929931640625,-11.708000183105469 -256.1929931640625,-11.708000183105469 C-256.1929931640625,26.927000045776367 -248.91000366210938,65.25800323486328 -234.73800659179688,101.19100189208984 C-234.73800659179688,101.19100189208984 -231.72900390625,108.77799987792969 -231.72900390625,108.77799987792969z"></path></g></g><g style="display: block;" transform="matrix(0.9994114637374878,0.034303538501262665,-0.034303538501262665,0.9994114637374878,809.0177001953125,539.4654541015625)" opacity="1"><g opacity="1" transform="matrix(1,0,0,1,175.55999755859375,40.66400146484375)"><path fill="rgb(43,41,109)" fill-opacity="1" d=" M-1.6480000019073486,-21.68600082397461 C-8.656999588012695,-20.665000915527344 -15.33899974822998,-17.50200080871582 -20.57200050354004,-12.729000091552734 C-27.63599967956543,-6.283999919891357 -31.554000854492188,5.736000061035156 -24.863000869750977,12.565999984741211 C-22.325000762939453,15.156000137329102 -18.770000457763672,16.444000244140625 -15.305999755859375,17.520000457763672 C-5.763999938964844,20.485000610351562 4.632999897003174,22.444000244140625 14.123000144958496,19.32200050354004 C23.615999221801758,16.200000762939453 31.55500030517578,6.519999980926514 29.63599967956543,-3.2850000858306885 C28.334999084472656,-9.937999725341797 22.88599967956543,-15.175999641418457 16.72800064086914,-18.010000228881836 C10.569999694824219,-20.843000411987305 3.7070000171661377,-21.660999298095703 -3.0250000953674316,-22.444000244140625 C-3.0250000953674316,-22.444000244140625 -1.6480000019073486,-21.68600082397461 -1.6480000019073486,-21.68600082397461z"></path></g><g opacity="1" transform="matrix(1,0,0,1,233.47000122070312,24.059999465942383)"><path fill="rgb(43,41,109)" fill-opacity="1" d=" M25.190000534057617,18.84000015258789 C19.08099937438965,21.989999771118164 12.119999885559082,23.809999465942383 5.290999889373779,23.020000457763672 C-1.5390000343322754,22.219999313354492 -8.199999809265137,18.56999969482422 -11.720000267028809,12.65999984741211 C-14.640000343322754,7.760000228881836 -15.40999984741211,1.5199999809265137 -19.469999313354492,-2.4800000190734863 C-23.899999618530273,-6.840000152587891 -30.889999389648438,-7.218999862670898 -36.17900085449219,-10.479999542236328 C-37.29999923706055,-11.170000076293945 -38.439998626708984,-12.178999900817871 -38.439998626708984,-13.5 C-38.439998626708984,-14.34000015258789 -37.95899963378906,-15.109999656677246 -37.439998626708984,-15.770000457763672 C-36.380001068115234,-17.110000610351562 -35.16899871826172,-18.270000457763672 -33.82899856567383,-19.270000457763672 C-25.07900047302246,-21.239999771118164 -16.16900062561035,-22.770000457763672 -7.098999977111816,-23.809999465942383 C-7.098999977111816,-23.809999465942383 -7.089000225067139,-23.809999465942383 -7.089000225067139,-23.809999465942383 C6.019999980926514,-22.110000610351562 19.469999313354492,-16.770000457763672 26.820999145507812,-12.130000114440918 C31.84000015258789,-8.949999809265137 36.83100128173828,-4.539999961853027 37.529998779296875,1.3609999418258667 C38.439998626708984,8.899999618530273 31.950000762939453,15.361000061035156 25.190000534057617,18.84000015258789z"></path></g><g opacity="1" transform="matrix(1,0,0,1,312.9209899902344,26.350000381469727)"><path fill="rgb(43,41,109)" fill-opacity="1" d=" M24.520000457763672,-14.65999984741211 C26.43000030517578,-13.0600004196167 27.959999084472656,-11.380000114440918 28.920000076293945,-9.65999984741211 C30.989999771118164,-5.949999809265137 31.219999313354492,-1.4199999570846558 30.270000457763672,2.7200000286102295 C27.90999984741211,12.989999771118164 18.459999084472656,20.780000686645508 8.109999656677246,22.709999084472656 C-2.240000009536743,24.6299991607666 -13.119999885559082,21.280000686645508 -21.700000762939453,15.180000305175781 C-25.440000534057617,12.520000457763672 -28.950000762939453,9.14900016784668 -30.360000610351562,4.78000020980835 C-31.100000381469727,2.490000009536743 -31.219999313354492,0.05000000074505806 -31.06999969482422,-2.3399999141693115 C-30.469999313354492,-11.670000076293945 -24.56999969482422,-20.639999389648438 -16.229999542236328,-24.6299991607666 C-16.229999542236328,-24.6299991607666 24.520000457763672,-14.65999984741211 24.520000457763672,-14.65999984741211z"></path></g><g opacity="1" transform="matrix(1,0,0,1,276.0169982910156,73.37699890136719)"><path fill="rgb(43,41,109)" fill-opacity="1" d=" M-20.482999801635742,-6.560999870300293 C-23.530000686645508,-1.0140000581741333 -22.45599937438965,6.25 -18.645999908447266,11.302000045776367 C-14.836000442504883,16.354999542236328 -8.682999610900879,19.31100082397461 -2.4140000343322754,20.16900062561035 C4.460000038146973,21.111000061035156 11.972999572753906,19.493999481201172 16.875,14.583999633789062 C22.218000411987305,9.232000350952148 23.5310001373291,0.3720000088214874 20.18400001525879,-6.410999774932861 C12.930999755859375,-21.11199951171875 -12.697999954223633,-20.73200035095215 -20.482999801635742,-6.560999870300293z"></path></g><g opacity="1" transform="matrix(1,0,0,1,223.5279998779297,72.6449966430664)"><path fill="rgb(43,41,109)" fill-opacity="1" d=" M-21.62299919128418,-9.505999565124512 C-24.525999069213867,-4.216000080108643 -23.81800079345703,2.5929999351501465 -20.695999145507812,7.756999969482422 C-17.575000762939453,12.918999671936035 -12.336999893188477,16.549999237060547 -6.704999923706055,18.711000442504883 C-1.7430000305175781,20.613000869750977 3.73799991607666,21.474000930786133 8.925999641418457,20.332000732421875 C14.11400032043457,19.187999725341797 18.952999114990234,15.85099983215332 21.163000106811523,11.017999649047852 C24.525999069213867,3.6600000858306885 20.951000213623047,-5.531000137329102 14.53600025177002,-10.461999893188477 C5.7779998779296875,-17.19300079345703 -15.053000450134277,-21.475000381469727 -21.62299919128418,-9.505999565124512z"></path></g><g opacity="1" transform="matrix(1,0,0,1,248.11399841308594,117.5260009765625)"><path fill="rgb(43,41,109)" fill-opacity="1" d=" M-16.52400016784668,10.454000473022461 C-13.307000160217285,20.402000427246094 -1.7450000047683716,26.871000289916992 8.371999740600586,24.235000610351562 C18.48900032043457,21.60099983215332 25.44300079345703,10.142999649047852 22.941999435424805,-0.00800000037997961 C16.322999954223633,-26.871000289916992 -25.44300079345703,-17.141000747680664 -16.52400016784668,10.454000473022461z"></path></g><g opacity="1" transform="matrix(1,0,0,1,368.4410095214844,42.685001373291016)"><path fill="rgb(43,41,109)" fill-opacity="1" d=" M17.3799991607666,-8.986000061035156 C16.90999984741211,-4.705999851226807 15.039999961853027,-0.17399999499320984 12.989999771118164,4.054999828338623 C10.949999809265137,8.265000343322754 8.84000015258789,12.555000305175781 5.520999908447266,15.845000267028809 C2.190999984741211,19.135000228881836 -2.6489999294281006,21.29400062561035 -7.199999809265137,20.19499969482422 C-12.680000305175781,18.874000549316406 -16.219999313354492,13.175000190734863 -16.799999237060547,7.565000057220459 C-17.3799991607666,1.9550000429153442 -15.619999885559082,-3.615999937057495 -13.809000015258789,-8.956000328063965 C-12.289999961853027,-13.446000099182129 -9.770000457763672,-18.134000778198242 -6.340000152587891,-21.29400062561035 C-6.340000152587891,-21.29400062561035 17.3799991607666,-8.986000061035156 17.3799991607666,-8.986000061035156z"></path></g><g opacity="1" transform="matrix(1,0,0,1,331.302001953125,69.5199966430664)"><path fill="rgb(43,41,109)" fill-opacity="1" d=" M-18.45400047302246,-6.045000076293945 C-19.400999069213867,-4.334000110626221 -19.451000213623047,-2.2839999198913574 -19.47599983215332,-0.328000009059906 C-19.55699920654297,5.749000072479248 -19.36199951171875,12.538000106811523 -15.065999984741211,16.839000701904297 C-9.84000015258789,22.069000244140625 -1.0190000534057617,21.04800033569336 5.730999946594238,18.0310001373291 C10.444999694824219,15.925000190734863 15.187999725341797,12.506999969482422 16.2189998626709,7.447999954223633 C19.555999755859375,-8.916999816894531 -9.595000267028809,-22.06999969482422 -18.45400047302246,-6.045000076293945z"></path></g><g opacity="1" transform="matrix(1,0,0,1,127.23100280761719,36.310001373291016)"><path fill="rgb(43,41,109)" fill-opacity="1" d=" M12.789999961853027,-0.7710000276565552 C4.25,6.699999809265137 -7.71999979019165,11.878999710083008 -18.420000076293945,8.819999694824219 C-7.369999885559082,1.0299999713897705 4.320000171661377,-5.900000095367432 16.56100082397461,-11.878999710083008 C16.891000747680664,-11.399999618530273 17.15999984741211,-10.878999710083008 17.329999923706055,-10.3100004196167 C18.420000076293945,-6.739999771118164 15.600000381469727,-3.2309999465942383 12.789999961853027,-0.7710000276565552z"></path></g><g opacity="1" transform="matrix(1,0,0,1,177.24200439453125,79.50800323486328)"><path fill="rgb(43,41,109)" fill-opacity="1" d=" M-1.465000033378601,-10.902000427246094 C-6.046000003814697,-10.21500015258789 -10.383000373840332,-7.999000072479248 -13.625,-4.690999984741211 C-15.305999755859375,-2.9769999980926514 -16.76300048828125,-0.7590000033378601 -16.58300018310547,1.6360000371932983 C-16.291000366210938,5.5 -12.130000114440918,7.7270002365112305 -8.456999778747559,8.965999603271484 C-3.381999969482422,10.675999641418457 2.1610000133514404,11.904999732971191 7.2870001792907715,10.35099983215332 C12.411999702453613,8.79800033569336 16.76300048828125,3.6070001125335693 15.67300033569336,-1.6369999647140503 C14.39799976348877,-7.765999794006348 7.254000186920166,-10.369000434875488 1.184999942779541,-11.904999732971191 C1.184999942779541,-11.904999732971191 -1.465000033378601,-10.902000427246094 -1.465000033378601,-10.902000427246094z"></path></g><g opacity="1" transform="matrix(1,0,0,1,44.96099853515625,135.7949981689453)"><path fill="rgb(43,41,109)" fill-opacity="1" d=" M17.708999633789062,-8.586000442504883 C17.84000015258789,-3.8559999465942383 16.559999465942383,0.7839999794960022 15.300000190734863,5.34499979019165 C14.319000244140625,8.875 13.279000282287598,12.53499984741211 10.939000129699707,15.364999771118164 C8.680000305175781,18.09600067138672 5.429999828338623,19.795000076293945 2.2790000438690186,21.413999557495117 C-0.9800000190734863,23.084999084472656 -4.35099983215332,24.78499984741211 -8.01099967956543,25.024999618530273 C-11.65999984741211,25.256000518798828 -15.6899995803833,23.614999771118164 -17.121000289916992,20.2450008392334 C-17.84000015258789,18.565000534057617 -17.84000015258789,16.663999557495117 -17.770000457763672,14.835000038146973 C-17.621000289916992,10.104000091552734 -17.170000076293945,5.34499979019165 -16.131000518798828,0.7250000238418579 C-16.121000289916992,0.7250000238418579 -16.121000289916992,0.7149999737739563 -16.121000289916992,0.7149999737739563 C-12.211000442504883,-6.806000232696533 -7.940000057220459,-14.095999717712402 -3.319999933242798,-21.155000686645508 C-1.9609999656677246,-22.024999618530273 -0.47999998927116394,-22.676000595092773 1.1089999675750732,-23.04599952697754 C10.65999984741211,-25.256000518798828 17.448999404907227,-17.606000900268555 17.708999633789062,-8.586000442504883z"></path></g><g opacity="1" transform="matrix(1,0,0,1,17.93600082397461,185.2050018310547)"><path fill="rgb(43,41,109)" fill-opacity="1" d=" M8.704999923706055,9.975000381469727 C5.144000053405762,16.155000686645508 -1.465000033378601,20.864999771118164 -8.605999946594238,20.833999633789062 C-10.154999732971191,20.825000762939453 -11.78499984741211,20.565000534057617 -13.125,19.825000762939453 C-13.125,19.825000762939453 -1.8650000095367432,-20.014999389648438 -1.8650000095367432,-20.014999389648438 C1.774999976158142,-20.864999771118164 9.164999961853027,-18.674999237060547 11.28499984741211,-15.505000114440918 C12.204999923706055,-14.12600040435791 12.4350004196167,-12.416000366210938 12.564000129699707,-10.765000343322754 C13.125,-3.6449999809265137 12.265000343322754,3.7850000858306885 8.704999923706055,9.975000381469727z"></path></g><g opacity="1" transform="matrix(1,0,0,1,59.612998962402344,179.8730010986328)"><path fill="rgb(43,41,109)" fill-opacity="1" d=" M-14.682999610900879,16.06999969482422 C-13.833000183105469,17.275999069213867 -12.76099967956543,18.38800048828125 -11.392000198364258,18.93899917602539 C-10.213000297546387,19.413000106811523 -8.906000137329102,19.43600082397461 -7.63700008392334,19.381999969482422 C6.140999794006348,18.791000366210938 23.38599967956543,-0.5199999809265137 6.534999847412109,-10.72700023651123 C-7.8470001220703125,-19.437000274658203 -23.38599967956543,3.700000047683716 -14.682999610900879,16.06999969482422z"></path></g><g opacity="1" transform="matrix(1,0,0,1,38.32099914550781,220.61500549316406)"><path fill="rgb(43,41,109)" fill-opacity="1" d=" M7.784999847412109,-12.710000038146973 C5.888000011444092,-14.704000473022461 2.7219998836517334,-14.70300006866455 0.013000000268220901,-14.206999778747559 C-6.355999946594238,-13.036999702453613 -12.866000175476074,-9.236000061035156 -14.60200023651123,-2.996999979019165 C-16.33799934387207,3.24399995803833 -12.236000061035156,10.321999549865723 -6.138999938964844,12.513999938964844 C-0.041999999433755875,14.704000473022461 7.224999904632568,12.232999801635742 11.270000457763672,7.172999858856201 C16.339000701904297,0.8320000171661377 15.678999900817871,-9.855999946594238 8.918999671936035,-14.35099983215332 C7.755000114440918,-13.878000259399414 6.591000080108643,-13.406999588012695 5.427000045776367,-12.934000015258789 C5.427000045776367,-12.934000015258789 7.784999847412109,-12.710000038146973 7.784999847412109,-12.710000038146973z"></path></g><g opacity="1" transform="matrix(1,0,0,1,8.255999565124512,228.8000030517578)"><path fill="rgb(43,41,109)" fill-opacity="1" d=" M6.00600004196167,4.159999847412109 C4.796000003814697,7.409999847412109 2.825000047683716,10.489999771118164 -0.06400000303983688,12.40999984741211 C-2.374000072479248,13.9399995803833 -5.335999965667725,14.609999656677246 -8.005999565124512,14.020000457763672 C-7.744999885559082,8.180999755859375 -7.27400016784668,2.4000000953674316 -6.624000072479248,-3.3399999141693115 C-6.624000072479248,-3.3399999141693115 -6.624000072479248,-3.378999948501587 -6.624000072479248,-3.378999948501587 C-6.314000129699707,-6.129000186920166 -5.965000152587891,-8.84000015258789 -5.534999847412109,-11.538999557495117 C-5.426000118255615,-12.329000473022461 -5.306000232696533,-13.109999656677246 -5.176000118255615,-13.890000343322754 C-1.1150000095367432,-14.609999656677246 3.2960000038146973,-13.329000473022461 5.585000038146973,-9.930000305175781 C5.585000038146973,-9.930000305175781 6.974999904632568,-9.949000358581543 6.974999904632568,-9.949000358581543 C8.005000114440918,-5.2789998054504395 7.664999961853027,-0.3190000057220459 6.00600004196167,4.159999847412109z"></path></g><g opacity="1" transform="matrix(1,0,0,1,69.56500244140625,214.656005859375)"><path fill="rgb(43,41,109)" fill-opacity="1" d=" M5.999000072479248,-12.093999862670898 C2.627000093460083,-13.642000198364258 -1.5490000247955322,-12.680000305175781 -4.3979997634887695,-10.305999755859375 C-7.249000072479248,-7.928999900817871 -8.89799976348877,-4.361999988555908 -9.635000228881836,-0.7269999980926514 C-10.340999603271484,2.749000072479248 -10.166000366210938,6.706999778747559 -7.826000213623047,9.371000289916992 C-4.071000099182129,13.642000198364258 3.555000066757202,12.062000274658203 6.929999828338623,7.486000061035156 C10.305999755859375,2.9070000648498535 10.342000007629395,-3.3369998931884766 9.24899959564209,-8.918999671936035 C9.24899959564209,-8.918999671936035 5.999000072479248,-12.093999862670898 5.999000072479248,-12.093999862670898z"></path></g><g opacity="1" transform="matrix(1,0,0,1,470.8349914550781,135.7050018310547)"><path fill="rgb(43,41,109)" fill-opacity="1" d=" M18.915000915527344,13.635000228881836 C18.875999450683594,13.704000473022461 18.834999084472656,13.774999618530273 18.79599952697754,13.845000267028809 C13.755000114440918,22.344999313354492 1.9559999704360962,26.94499969482422 -6.6539998054504395,22.104999542236328 C-12.234000205993652,18.95400047302246 -15.454000473022461,12.71500015258789 -16.7549991607666,6.434999942779541 C-18.915000915527344,-3.9749999046325684 -14.96399974822998,-22.235000610351562 -4.09499979019165,-26.94499969482422 C4.744999885559082,-14.206000328063965 12.465999603271484,-0.6359999775886536 18.915000915527344,13.635000228881836z"></path></g><g opacity="1" transform="matrix(1,0,0,1,495.0660095214844,184.64999389648438)"><path fill="rgb(43,41,109)" fill-opacity="1" d=" M11.524999618530273,15.779999732971191 C8.354999542236328,18.530000686645508 4.144999980926514,20.229999542236328 0.08500000089406967,19.3799991607666 C-6.116000175476074,18.09000015258789 -9.803999900817871,11.449999809265137 -10.593999862670898,5.170000076293945 C-11.52400016784668,-2.200000047683716 -8.883999824523926,-16.979999542236328 -0.4950000047683716,-19.861000061035156 C-0.014000000432133675,-20.020000457763672 0.45500001311302185,-20.150999069213867 0.9240000247955322,-20.229999542236328 C5.304999828338623,-8.611000061035156 8.866000175476074,3.4200000762939453 11.524999618530273,15.779999732971191z"></path></g><g opacity="1" transform="matrix(1,0,0,1,447.8340148925781,179.92100524902344)"><path fill="rgb(43,41,109)" fill-opacity="1" d=" M2.1740000247955322,29.951000213623047 C9.819000244140625,31.14299964904785 17.76300048828125,26.351999282836914 21.023000717163086,19.333999633789062 C24.2810001373291,12.317999839782715 23.091999053955078,3.6610000133514404 18.75,-2.743000030517578 C-0.5099999904632568,-31.14299964904785 -24.280000686645508,25.82699966430664 2.1740000247955322,29.951000213623047z"></path></g><g opacity="1" transform="matrix(1,0,0,1,481.90899658203125,226.5850067138672)"><path fill="rgb(43,41,109)" fill-opacity="1" d=" M-10.289999961853027,-9.562999725341797 C-16.058000564575195,-4.636000156402588 -15.222000122070312,5.60699987411499 -9.288999557495117,10.331999778747559 C-3.3559999465942383,15.057000160217285 5.920000076293945,14.192000389099121 11.657999992370605,9.232000350952148 C13.807000160217285,7.375999927520752 15.583999633789062,4.894999980926514 15.890999794006348,2.072000026702881 C16.058000564575195,0.5339999794960022 15.779000282287598,-1.024999976158142 15.300999641418457,-2.496999979019165 C13.62600040435791,-7.636000156402588 9.350000381469727,-11.852999687194824 4.188000202178955,-13.456000328063965 C-0.9760000109672546,-15.057999610900879 -6.888000011444092,-14.001999855041504 -11.178999900817871,-10.715999603271484 C-11.178999900817871,-10.715999603271484 -10.289999961853027,-9.562999725341797 -10.289999961853027,-9.562999725341797z"></path></g><g opacity="1" transform="matrix(1,0,0,1,507.6260070800781,231.48500061035156)"><path fill="rgb(43,41,109)" fill-opacity="1" d=" M4.684999942779541,18.69499969482422 C3.325000047683716,18.96500015258789 1.9249999523162842,18.735000610351562 0.8550000190734863,17.854999542236328 C-0.2150000035762787,16.985000610351562 -0.7749999761581421,15.645000457763672 -1.215000033378601,14.335000038146973 C-2.934999942779541,9.335000038146973 -4.684999942779541,-11.954999923706055 1.274999976158142,-18.96500015258789 C1.9850000143051147,-14.704999923706055 2.5850000381469727,-10.395000457763672 3.075000047683716,-6.065000057220459 C3.996000051498413,2.065000057220459 4.554999828338623,10.335000038146973 4.684999942779541,18.69499969482422z"></path></g></g><g style="display: block;" transform="matrix(0.9994114637374878,0.034303538501262665,-0.034303538501262665,0.9994114637374878,1032.9071044921875,946.2271118164062)" opacity="1"><g opacity="1" transform="matrix(1,0,0,1,28.73200035095215,9.677000045776367)"><path fill="rgb(43,41,109)" fill-opacity="1" d=" M4.129000186920166,8.029999732971191 C4.129000186920166,8.029999732971191 4.129000186920166,8.029999732971191 4.129000186920166,8.029999732971191 C1.409000039100647,9.427000045776367 -1.9600000381469727,8.345999717712402 -3.3570001125335693,5.627999782562256 C-3.3570001125335693,5.627999782562256 -6.53000020980835,-0.5419999957084656 -6.53000020980835,-0.5419999957084656 C-7.928999900817871,-3.260999917984009 -6.8480000495910645,-6.630000114440918 -4.127999782562256,-8.029000282287598 C-1.4079999923706055,-9.427000045776367 1.9600000381469727,-8.345999717712402 3.3580000400543213,-5.625999927520752 C3.3580000400543213,-5.625999927520752 6.531000137329102,0.5429999828338623 6.531000137329102,0.5429999828338623 C7.928999900817871,3.26200008392334 6.848999977111816,6.631999969482422 4.129000186920166,8.029999732971191z"></path></g><g opacity="1" transform="matrix(1,0,0,1,8.178999900817871,9.677000045776367)"><path fill="rgb(43,41,109)" fill-opacity="1" d=" M-4.129000186920166,8.029999732971191 C-4.129000186920166,8.029999732971191 -4.129000186920166,8.029999732971191 -4.129000186920166,8.029999732971191 C-1.409000039100647,9.427000045776367 1.9600000381469727,8.345999717712402 3.3580000400543213,5.627999782562256 C3.3580000400543213,5.627999782562256 6.53000020980835,-0.5419999957084656 6.53000020980835,-0.5419999957084656 C7.928999900817871,-3.260999917984009 6.8480000495910645,-6.630000114440918 4.129000186920166,-8.029000282287598 C1.409000039100647,-9.427000045776367 -1.9600000381469727,-8.345999717712402 -3.3580000400543213,-5.625999927520752 C-3.3580000400543213,-5.625999927520752 -6.53000020980835,0.5429999828338623 -6.53000020980835,0.5429999828338623 C-7.928999900817871,3.26200008392334 -6.8480000495910645,6.631999969482422 -4.129000186920166,8.029999732971191z"></path></g></g><g style="display: block;" transform="matrix(0.9994114637374878,0.034303538501262665,-0.034303538501262665,0.9994114637374878,1144.958740234375,828.5516357421875)" opacity="1"><g opacity="1" transform="matrix(1,0,0,1,83.4739990234375,110.21299743652344)"><path fill="rgb(43,41,109)" fill-opacity="1" d=" M83.2249984741211,-91.3280029296875 C83.2249984741211,-91.3280029296875 83.2249984741211,-69.52400207519531 83.2249984741211,-69.52400207519531 C83.2249984741211,-31.062000274658203 75.98500061035156,7.093999862670898 61.94499969482422,42.895999908447266 C59.632999420166016,48.86899948120117 57.10300064086914,54.75600051879883 54.400001525878906,60.51300048828125 C49.3849983215332,71.3270034790039 43.7599983215332,81.70500183105469 37.61199951171875,91.77799987792969 C37.61199951171875,91.77799987792969 37.56700134277344,91.8219985961914 37.56700134277344,91.8219985961914 C6.388000011444092,108.08799743652344 -31.856000900268555,109.96299743652344 -55.01100158691406,77.99800109863281 C-83.2249984741211,39.10200119018555 -65.95700073242188,-27.094999313354492 -42.974998474121094,-64.94599914550781 C-27.235000610351562,-90.8219985961914 4.6620001792907715,-109.96299743652344 34.249000549316406,-106.4020004272461 C37.354000091552734,-106.02799987792969 40.481998443603516,-105.74800109863281 43.60599899291992,-105.86799621582031 C52.051998138427734,-106.19000244140625 60.64899826049805,-104.5719985961914 68.5739974975586,-101.09700012207031 C74.06800079345703,-98.65399932861328 78.9520034790039,-95.33999633789062 83.2249984741211,-91.3280029296875z"></path></g></g><g style="display: block;" transform="matrix(0.9994114637374878,0.034303538501262665,-0.034303538501262665,0.9994114637374878,799.3464965820312,813.184814453125)" opacity="1"><g opacity="1" transform="matrix(1,0,0,1,83.4739990234375,112.31300354003906)"><path fill="rgb(43,41,109)" fill-opacity="1" d=" M55.05500030517578,79.4000015258789 C31.41900062561035,112.06199645996094 -8.003000259399414,109.35900115966797 -39.529998779296875,92.177001953125 C-45.15599822998047,82.3219985961914 -50.25899887084961,72.11900329589844 -54.792999267578125,61.65299987792969 C-54.792999267578125,61.65299987792969 -54.792999267578125,61.60900115966797 -54.792999267578125,61.60900115966797 C-56.1879997253418,58.46900177001953 -57.49599838256836,55.33000183105469 -58.7599983215332,52.10300064086914 C-58.7599983215332,52.10300064086914 -61.77000045776367,44.51599884033203 -61.77000045776367,44.51599884033203 C-75.94200134277344,8.583999633789062 -83.2249984741211,-29.74799919128418 -83.2249984741211,-68.38400268554688 C-83.2249984741211,-68.38400268554688 -83.2249984741211,-89.88300323486328 -83.2249984741211,-89.88300323486328 C-78.9520034790039,-93.93800354003906 -74.06700134277344,-97.25199890136719 -68.52799987792969,-99.69499969482422 C-60.20800018310547,-103.34400177001953 -51.30799865722656,-107.12300109863281 -42.52199935913086,-107.01599884033203 C-40.57699966430664,-106.99299621582031 -38.638999938964844,-107.06300354003906 -36.71699905395508,-107.36199951171875 C-6.453000068664551,-112.06300354003906 26.875,-90.08399963378906 43.01900100708008,-63.54399871826172 C66,-25.69300079345703 83.2249984741211,40.50400161743164 55.05500030517578,79.4000015258789z"></path></g></g><g style="display: block;" transform="matrix(0.9994114637374878,0.034303538501262665,-0.034303538501262665,0.9994114637374878,1212.087158203125,857.1531982421875)" opacity="1"><g opacity="1" transform="matrix(1,0,0,1,30.274999618530273,32.67900085449219)"><path fill="rgb(210,220,238)" fill-opacity="1" d=" M20.621999740600586,-23.384000778198242 C13.666000366210938,-30.10099983215332 3.5209999084472656,-32.42900085449219 -5.7829999923706055,-30.35700035095215 C-11.258000373840332,-29.136999130249023 -16.658000946044922,-25.729000091552734 -20.33799934387207,-21.12299919128418 C-23.951000213623047,-17.905000686645508 -26.68199920654297,-13.763999938964844 -28.027999877929688,-8.802000045776367 C-30.024999618530273,-1.440999984741211 -28.601999282836914,6.875 -24.729000091552734,13.406000137329102 C-17.457000732421875,25.667999267578125 -3.635999917984009,32.42900085449219 10.447999954223633,28.881000518798828 C23.006999969482422,25.715999603271484 28.468000411987305,11.265999794006348 29.367000579833984,-0.3919999897480011 C30.025999069213867,-8.930999755859375 26.76099967956543,-17.45400047302246 20.621999740600586,-23.384000778198242z"></path></g></g><g style="display: block;" transform="matrix(0.9994114637374878,0.034303538501262665,-0.034303538501262665,0.9994114637374878,826.6261596679688,843.9227294921875)" opacity="1"><g opacity="1" transform="matrix(1,0,0,1,30.274999618530273,32.67900085449219)"><path fill="rgb(210,220,238)" fill-opacity="1" d=" M20.621000289916992,-23.384000778198242 C13.666000366210938,-30.10099983215332 3.5209999084472656,-32.42900085449219 -5.783999919891357,-30.35700035095215 C-11.260000228881836,-29.136999130249023 -16.658000946044922,-25.729000091552734 -20.339000701904297,-21.12299919128418 C-23.951000213623047,-17.905000686645508 -26.683000564575195,-13.763999938964844 -28.02899932861328,-8.802000045776367 C-30.025999069213867,-1.440999984741211 -28.601999282836914,6.875 -24.729999542236328,13.406000137329102 C-17.45599937438965,25.667999267578125 -3.63700008392334,32.42900085449219 10.447999954223633,28.881000518798828 C23.006000518798828,25.715999603271484 28.468000411987305,11.265999794006348 29.367000579833984,-0.3919999897480011 C30.025999069213867,-8.930999755859375 26.760000228881836,-17.45400047302246 20.621000289916992,-23.384000778198242z"></path></g></g><g style="display: block;" transform="matrix(0.9999991059303284,0.0013629714958369732,-0.0013629714958369732,0.9999991059303284,1021.0008544921875,1037.094970703125)" opacity="1"><g opacity="1" transform="matrix(1,0,0,1,32.85499954223633,19.429000854492188)"><path fill="rgb(43,41,109)" fill-opacity="1" d=" M26.249000549316406,-19.179000854492188 C22.562999725341797,-19.179000854492188 20.42300033569336,-16.31100082397461 20.0310001373291,-12.961000442504883 C19.520999908447266,-8.600000381469727 17.284000396728516,-3.5739998817443848 13.951000213623047,-0.05400000140070915 C10.66100025177002,3.4200000762939453 6.234000205993652,6.067999839782715 1.4490000009536743,6.6620001792907715 C-9.152000427246094,7.97599983215332 -18.729000091552734,0.3880000114440918 -22.309999465942383,-9.1850004196167 C-24.46299934387207,-14.944000244140625 -32.60599899291992,-12.718999862670898 -31.507999420166016,-6.6479997634887695 C-28.823999404907227,8.185999870300293 -12.505000114440918,19.17799949645996 2.193000078201294,17.809999465942383 C18,16.340999603271484 31.788999557495117,3.178999900817871 32.46500015258789,-12.961000442504883 C32.60499954223633,-16.319000244140625 29.507999420166016,-19.179000854492188 26.249000549316406,-19.179000854492188z"></path></g></g><g style="display: block;" transform="matrix(1,0,0,1,731.722900390625,1276.238037109375)" opacity="1"><g opacity="1" transform="matrix(1,0,0,1,357.7950134277344,464.43499755859375)"><path fill="rgb(88,80,160)" fill-opacity="1" d=" M356.614990234375,380.82598876953125 C356.125,381.3869934082031 351.7449951171875,379.59600830078125 348.4259948730469,380.47601318359375 C341.58599853515625,382.2860107421875 334.385009765625,385.7950134277344 327.2850036621094,391.67498779296875 C309.2749938964844,406.57501220703125 303.8550109863281,419.46600341796875 302.2449951171875,425.30499267578125 C302.19500732421875,425.4949951171875 302.1759948730469,425.6759948730469 302.19500732421875,425.8659973144531 C302.5350036621094,431.2170104980469 302.9259948730469,440.135986328125 303.80499267578125,450.71600341796875 C303.8550109863281,451.3550109863281 303.7449951171875,451.94500732421875 303.5249938964844,452.46600341796875 C303.4259948730469,452.71600341796875 303.3550109863281,452.97601318359375 303.375,453.2460021972656 C303.5060119628906,455.0360107421875 303.6449890136719,456.875 303.80499267578125,458.7749938964844 C304.0950012207031,462.30499267578125 299.7349853515625,464.1839904785156 297.364990234375,461.55499267578125 C297.364990234375,461.55499267578125 72.49500274658203,211.6649932861328 72.49500274658203,211.6649932861328 C72.49500274658203,211.6649932861328 71.98500061035156,211.156005859375 71.98500061035156,211.156005859375 C46.10499954223633,188.80599975585938 -41.01499938964844,149.15499877929688 -74.7750015258789,203.55499267578125 C-98.83399963378906,242.3249969482422 -104.83399963378906,329.06500244140625 -105.03500366210938,403.7640075683594 C-105.0250015258789,407.5950012207031 -105.00499725341797,411.3869934082031 -104.96499633789062,415.1369934082031 C-104.96499633789062,415.3659973144531 -104.5250015258789,428.6369934082031 -104.51499938964844,429.70599365234375 C-104.48500061035156,434.4460144042969 -110.48500061035156,426.3559875488281 -114.13500213623047,423.32598876953125 C-124.38500213623047,414.82598876953125 -141.60499572753906,406.1050109863281 -167.30499267578125,409.80499267578125 C-199.2550048828125,414.4049987792969 -212.4250030517578,433.1960144042969 -214.58399963378906,436.6260070800781 C-214.82400512695312,437.0060119628906 -215.09500122070312,437.3349914550781 -215.4250030517578,437.6449890136719 C-216.43499755859375,438.5950012207031 -218.85499572753906,440.89599609375 -222.31500244140625,444.2560119628906 C-224.2949981689453,446.18499755859375 -227.61500549316406,445.34600830078125 -228.43499755859375,442.70599365234375 C-239.38499450683594,407.6059875488281 -250.60499572753906,356.7049865722656 -260.4649963378906,300.56500244140625 C-262.81500244140625,287.2449951171875 -265.0740051269531,273.64599609375 -267.2439880371094,259.8760070800781 C-267.92498779296875,255.5760040283203 -268.5950012207031,251.2550048828125 -269.2550048828125,246.93499755859375 C-271.5950012207031,231.4949951171875 -273.81500244140625,215.93499755859375 -275.875,200.4250030517578 C-283.44500732421875,143.35499572753906 -288.8550109863281,87.09600067138672 -290.614990234375,41.387001037597656 C-291.114990234375,28.285999298095703 -291.385009765625,14.685999870300293 -291.31500244140625,0.7160000205039978 C-291.68499755859375,-85.75399780273438 -279.7550048828125,-187.9340057373047 -231.9040069580078,-277.02398681640625 C-231.78500366210938,-277.2539978027344 -231.63499450683594,-277.4639892578125 -231.46499633789062,-277.66400146484375 C-230.81500244140625,-278.3940124511719 -230.9040069580078,-279.52398681640625 -231.60499572753906,-280.2139892578125 C-254.09500122070312,-302.52398681640625 -357.5450134277344,-355.2239990234375 -350.16400146484375,-388.6440124511719 C-350.114990234375,-388.8940124511719 -350.1050109863281,-389.15399169921875 -350.15399169921875,-389.40399169921875 C-351.4750061035156,-395.9540100097656 -349.55499267578125,-401.9849853515625 -343.2049865722656,-407.17401123046875 C-330.7550048828125,-417.3739929199219 -243.97500610351562,-456.8240051269531 -165.35499572753906,-463.593994140625 C-163.83399963378906,-463.7239990234375 -142.19500732421875,-464.04400634765625 -141.14500427246094,-464.04400634765625 C-141.14500427246094,-464.04400634765625 58.98500061035156,-464.18499755859375 58.98500061035156,-464.18499755859375 C59.17599868774414,-464.18499755859375 86.25599670410156,-464.17401123046875 91.88500213623047,-464.17401123046875 C92.69499969482422,-464.17401123046875 93.50599670410156,-464.1050109863281 94.29499816894531,-463.94500732421875 C94.30500030517578,-463.94500732421875 94.30500030517578,-463.93499755859375 94.30500030517578,-463.93499755859375 C94.40499877929688,-463.9150085449219 96.65499877929688,-463.79400634765625 97.66600036621094,-463.67401123046875 C116.23500061035156,-461.5639953613281 186.77499389648438,-453.4739990234375 244.11500549316406,-445.8840026855469 C260.5150146484375,-444.4849853515625 322.6449890136719,-439.28399658203125 335.7749938964844,-439.42401123046875 C338.9849853515625,-439.4540100097656 338.9949951171875,-438.8940124511719 337.0060119628906,-437.9739990234375 C328.625,-434.1340026855469 321.4750061035156,-427.8739929199219 317.364990234375,-419.6239929199219 C311.2149963378906,-407.2640075683594 288.31500244140625,-392.2040100097656 274.7749938964844,-384.093994140625 C268.364990234375,-380.2539978027344 261.07501220703125,-378.15399169921875 253.61500549316406,-377.9739990234375 C253.61500549316406,-377.9739990234375 181.96499633789062,-376.2049865722656 181.96499633789062,-376.2049865722656 C180.96499633789062,-376.17498779296875 180.15499877929688,-375.3739929199219 180.13499450683594,-374.3630065917969 C179.2949981689453,-333.8039855957031 177.58599853515625,-285.9049987792969 177.0449981689453,-268.93499755859375 C177.0449981689453,-268.864013671875 177.0449981689453,-268.79400634765625 177.05499267578125,-268.7239990234375 C180.91600036621094,-223.41400146484375 189.4550018310547,-172.28399658203125 200.86500549316406,-118.93399810791016 C200.875,-118.93399810791016 200.875,-118.92400360107422 200.875,-118.91400146484375 C201.81500244140625,-114.48500061035156 202.78500366210938,-110.03399658203125 203.77499389648438,-105.5739974975586 C204.75599670410156,-101.10399627685547 205.76499938964844,-96.6240005493164 206.7949981689453,-92.1240005493164 C209.93499755859375,-78.35399627685547 213.2449951171875,-64.48500061035156 216.69500732421875,-50.56399917602539 C217.875,-45.784000396728516 219.0749969482422,-40.99399948120117 220.2949981689453,-36.20399856567383 C220.2949981689453,-36.20399856567383 220.2949981689453,-36.194000244140625 220.2949981689453,-36.194000244140625 C223.63499450683594,-22.993999481201172 227.10499572753906,-9.763999938964844 230.66600036621094,3.4260001182556152 C230.66600036621094,3.4260001182556152 230.66600036621094,3.436000108718872 230.66600036621094,3.436000108718872 C255.71499633789062,96.5260009765625 285.18499755859375,188.18600463867188 310.1449890136719,260.59600830078125 C323.1759948730469,298.39599609375 338.4949951171875,335.0050048828125 352.9849853515625,366.7950134277344 C353.614990234375,368.1839904785156 357.5450134277344,379.7860107421875 356.614990234375,380.82598876953125z"></path></g></g><g style="display: block;" transform="matrix(0.9510565400123596,-0.30901700258255005,0.30901700258255005,0.9510565400123596,996.002197265625,1010.7449951171875)" opacity="1"><g opacity="1" transform="matrix(1,0,0,1,280.302001953125,252.81199645996094)"><path fill="rgb(88,80,160)" fill-opacity="1" d=" M277.5920104980469,-223.60899353027344 C276.60101318359375,-230.1820068359375 274.04998779296875,-236.9600067138672 268.3210144042969,-241.5469970703125 C262.59100341796875,-246.13299560546875 253.0749969482422,-247.7239990234375 247.02999877929688,-243.71200561523438 C240.25599670410156,-239.21400451660156 240.56300354003906,-230.5469970703125 240.9250030517578,-223.14300537109375 C242.28599548339844,-195.19000244140625 235.73800659179688,-167.58299255371094 227.875,-140.6230010986328 C226.09800720214844,-134.52699279785156 224.09500122070312,-128.19200134277344 219.14599609375,-123.58699798583984 C214.1959991455078,-118.98300170898438 205.36399841308594,-116.7770004272461 199.1540069580078,-120.38500213623047 C193.3280029296875,-123.77100372314453 192.07000732421875,-130.51600646972656 191.7259979248047,-136.44400024414062 C190.10699462890625,-164.43499755859375 196.93099975585938,-192.56300354003906 211.36500549316406,-217.39599609375 C214.69000244140625,-223.11500549316406 218.48300170898438,-228.86700439453125 219.0760040283203,-235.2790069580078 C219.66900634765625,-241.6909942626953 215.96299743652344,-249.04299926757812 208.70199584960938,-251.0500030517578 C203.23899841308594,-252.56100463867188 197.17999267578125,-250.62899780273438 193.14199829101562,-247.2949981689453 C189.1009979248047,-243.96200561523438 186.73399353027344,-239.44000244140625 184.77999877929688,-234.9250030517578 C168.7530059814453,-197.88699340820312 175.04600524902344,-155.86700439453125 162.18800354003906,-117.88200378417969 C161.5540008544922,-116.01100158691406 160.7949981689453,-114.0479965209961 159.0399932861328,-112.81500244140625 C155.0240020751953,-109.99600219726562 148.83200073242188,-112.64299774169922 144.94700622558594,-115.76300048828125 C133.60800170898438,-124.86199951171875 127.09500122070312,-137.92799377441406 114.61199951171875,-145.85699462890625 C112.54499816894531,-147.17100524902344 110.12200164794922,-148.37100219726562 107.59300231933594,-148.16900634765625 C101.89700317382812,-147.71400451660156 100.48600006103516,-141.17599487304688 101.58000183105469,-136.36300659179688 C103.95700073242188,-125.91999816894531 110.71399688720703,-116.93099975585938 118.75,-108.39099884033203 C144.4929962158203,-81.03199768066406 148.447998046875,-39.691001892089844 127.84600067138672,-8.277999877929688 C110.11499786376953,18.757999420166016 85.37200164794922,42.42100143432617 55.770999908447266,60.4630012512207 C25.52400016784668,78.89800262451172 -36.36800003051758,79.32599639892578 -91.75700378417969,76.25299835205078 C-93.08300018310547,76.18000030517578 -94.4000015258789,76.07499694824219 -95.72000122070312,75.93599700927734 C-105.27400207519531,74.93099975585938 -124.59300231933594,73.28500366210938 -141.56100463867188,71.88400268554688 C-158.60299682617188,70.47899627685547 -175.61500549316406,74.50299835205078 -190.1790008544922,83.3290023803711 C-192.18699645996094,84.5459976196289 -194.26800537109375,85.63300323486328 -196.4080047607422,86.60099792480469 C-197.64300537109375,87.16000366210938 -199.156005859375,87.94999694824219 -200.66600036621094,89.01000213623047 C-236.12100219726562,113.91799926757812 -280.052001953125,207.40899658203125 -271.7669982910156,227.18099975585938 C-261.135009765625,252.56100463867188 -151.36500549316406,236.13999938964844 -149.33700561523438,236.0749969482422 C-129.81300354003906,235.44700622558594 -109.39900207519531,233.91200256347656 -95.70500183105469,231.9149932861328 C-50.58300018310547,225.33700561523438 -2.938999891281128,210.7310028076172 35.702999114990234,193.38099670410156 C90.24600219726562,168.8939971923828 142.24400329589844,109.66600036621094 173.52200317382812,43.63199996948242 C173.52200317382812,43.63199996948242 113.71199798583984,11.013999938964844 113.71199798583984,11.013999938964844 C113.71199798583984,11.013999938964844 121.18900299072266,1.5089999437332153 121.18900299072266,1.5089999437332153 C121.18900299072266,1.5089999437332153 180.5290069580078,27.871999740600586 180.5290069580078,27.871999740600586 C182.3939971923828,23.393999099731445 184.16099548339844,18.895999908447266 185.822998046875,14.385000228881836 C185.822998046875,14.385000228881836 128.2270050048828,-7.685999870300293 128.2270050048828,-7.685999870300293 C128.2270050048828,-7.685999870300293 136.01699829101562,-20.677000045776367 136.01699829101562,-20.677000045776367 C136.01699829101562,-20.677000045776367 191.59500122070312,-2.7039999961853027 191.59500122070312,-2.7039999961853027 C194.94400024414062,-13.61299991607666 197.6540069580078,-24.533000946044922 199.6320037841797,-35.34400177001953 C201.48199462890625,-45.452999114990234 205.14199829101562,-55.14699935913086 210.61900329589844,-63.840999603271484 C233.2169952392578,-99.71199798583984 252.49899291992188,-137.14100646972656 268.1080017089844,-175.73199462890625 C274.33099365234375,-191.1179962158203 280.052001953125,-207.28799438476562 277.5920104980469,-223.60899353027344z"></path></g><g opacity="1" transform="matrix(1,0,0,1,440.39300537109375,249.74200439453125)"><path fill="rgb(43,41,109)" fill-opacity="1" d=" M-31.86400032043457,-4.617000102996826 C-31.86400032043457,-4.617000102996826 25.73200035095215,17.45400047302246 25.73200035095215,17.45400047302246 C25.73200035095215,17.45400047302246 26.128999710083008,17.607999801635742 26.128999710083008,17.607999801635742 C26.128999710083008,17.607999801635742 31.86400032043457,0.4830000102519989 31.86400032043457,0.4830000102519989 C31.86400032043457,0.4830000102519989 31.503000259399414,0.36500000953674316 31.503000259399414,0.36500000953674316 C31.503000259399414,0.36500000953674316 -24.075000762939453,-17.607999801635742 -24.075000762939453,-17.607999801635742 C-24.075000762939453,-17.607999801635742 -31.86400032043457,-4.617000102996826 -31.86400032043457,-4.617000102996826z"></path></g><g opacity="1" transform="matrix(1,0,0,1,427.49200439453125,275.4179992675781)"><path fill="rgb(43,41,109)" fill-opacity="1" d=" M-33.47800064086914,-11.592000007629395 C-33.47800064086914,-11.592000007629395 26.332000732421875,21.025999069213867 26.332000732421875,21.025999069213867 C26.332000732421875,21.025999069213867 26.458999633789062,21.09600067138672 26.458999633789062,21.09600067138672 C26.458999633789062,21.09600067138672 33.47800064086914,5.328000068664551 33.47800064086914,5.328000068664551 C33.47800064086914,5.328000068664551 33.3380012512207,5.265999794006348 33.3380012512207,5.265999794006348 C33.3380012512207,5.265999794006348 -26.000999450683594,-21.097000122070312 -26.000999450683594,-21.097000122070312 C-26.000999450683594,-21.097000122070312 -33.47800064086914,-11.592000007629395 -33.47800064086914,-11.592000007629395z"></path></g></g><g style="display: block;" transform="matrix(1,0,0,1,918.6969604492188,1208.9639892578125)" opacity="1"><g opacity="1" transform="matrix(1,0,0,1,130.50799560546875,34.5260009765625)"><path fill="rgb(252,192,67)" fill-opacity="1" d=" M95.98300170898438,34.275001525878906 C95.98300170898438,34.275001525878906 -95.98300170898438,34.275001525878906 -95.98300170898438,34.275001525878906 C-114.91200256347656,34.275001525878906 -130.25799560546875,18.93000030517578 -130.25799560546875,0.0010000000474974513 C-130.25799560546875,-18.929000854492188 -114.91200256347656,-34.275001525878906 -95.98300170898438,-34.275001525878906 C-95.98300170898438,-34.275001525878906 95.98300170898438,-34.275001525878906 95.98300170898438,-34.275001525878906 C114.91300201416016,-34.275001525878906 130.25799560546875,-18.929000854492188 130.25799560546875,0.0010000000474974513 C130.25799560546875,18.93000030517578 114.91300201416016,34.275001525878906 95.98300170898438,34.275001525878906z"></path></g></g><g style="display: block;" transform="matrix(1,0,0,1,1025.5638427734375,1732.1700439453125)" opacity="1"><g opacity="1" transform="matrix(1,0,0,1,15.168999671936035,11.824000358581543)"><path fill="rgb(43,41,109)" fill-opacity="1" d=" M0.0010000000474974513,11.574000358581543 C14.895999908447266,11.574000358581543 14.920000076293945,-11.574000358581543 0.0010000000474974513,-11.574000358581543 C-14.895000457763672,-11.574000358581543 -14.918999671936035,11.574000358581543 0.0010000000474974513,11.574000358581543z"></path></g></g><g style="display: block;" transform="matrix(1,0,0,1,813.3928833007812,1614.1380615234375)" opacity="1"><g opacity="1" transform="matrix(1,0,0,1,12.854999542236328,349.6300048828125)"><path fill="rgb(43,41,109)" fill-opacity="1" d=" M12.505000114440918,4.25 C12.414999961853027,7.790999889373779 11.0649995803833,11.119999885559082 9.744999885559082,14.329999923706055 C8.385000228881836,17.649999618530273 6.965000152587891,21.06100082397461 4.545000076293945,23.479999542236328 C2.134999990463257,25.90999984741211 -1.5449999570846558,27.079999923706055 -4.355000019073486,25.301000595092773 C-4.965000152587891,24.90999984741211 -5.495999813079834,24.40999984741211 -5.986000061035156,23.840999603271484 C-8.326000213623047,8.399999618530273 -10.545000076293945,-7.158999919891357 -12.604999542236328,-22.670000076293945 C-7.223999977111816,-27.079999923706055 -0.03500000014901161,-24.858999252319336 4.315000057220459,-18.829999923706055 C6.954999923706055,-15.170000076293945 8.5649995803833,-10.720000267028809 10.145000457763672,-6.349999904632568 C11.364999771118164,-2.9489998817443848 12.605999946594238,0.5799999833106995 12.505000114440918,4.25z"></path></g><g opacity="1" transform="matrix(1,0,0,1,19.235000610351562,406.07000732421875)"><path fill="rgb(43,41,109)" fill-opacity="1" d=" M3.3259999752044678,19.709999084472656 C1.8860000371932983,20.979999542236328 0.10499999672174454,21.959999084472656 -1.7039999961853027,21.719999313354492 C-2.364000082015991,21.6299991607666 -2.984999895095825,21.3799991607666 -3.5739998817443848,21.030000686645508 C-5.923999786376953,7.710000038146973 -8.1850004196167,-5.889999866485596 -10.354999542236328,-19.65999984741211 C-7.695000171661377,-21.1200008392334 -4.434999942779541,-21.959999084472656 -2.4149999618530273,-21.190000534057617 C-1.034999966621399,-20.670000076293945 0.04600000008940697,-19.450000762939453 1.024999976158142,-18.229000091552734 C5.245999813079834,-12.949999809265137 8.645999908447266,-6.550000190734863 9.505999565124512,0.5210000276565552 C10.354999542236328,7.590000152587891 8.305999755859375,15.359999656677246 3.3259999752044678,19.709999084472656z"></path></g><g opacity="1" transform="matrix(1,0,0,1,43.42599868774414,378.1050109863281)"><path fill="rgb(43,41,109)" fill-opacity="1" d=" M-1.5720000267028809,17.889999389648438 C-0.3330000042915344,18.322999954223633 1.0099999904632568,18.54400062561035 2.256999969482422,18.141000747680664 C3.3310000896453857,17.792999267578125 4.250999927520752,17.010000228881836 5.104000091552734,16.190000534057617 C14.354999542236328,7.283999919891357 15.937999725341797,-18.54400062561035 -1.2610000371932983,-16.288999557495117 C-15.939000129699707,-14.36299991607666 -14.276000022888184,13.444000244140625 -1.5720000267028809,17.889999389648438z"></path></g><g opacity="1" transform="matrix(1,0,0,1,49.48699951171875,418.6730041503906)"><path fill="rgb(43,41,109)" fill-opacity="1" d=" M-0.3779999911785126,-13.944000244140625 C-2.7699999809265137,-14.357999801635742 -4.9679999351501465,-12.418999671936035 -6.580999851226807,-10.366999626159668 C-10.375,-5.541999816894531 -12.85200023651123,1.4520000219345093 -10.697999954223633,7.447000026702881 C-8.543999671936035,13.444000244140625 -1.8839999437332153,16.524999618530273 3.5299999713897705,14.522000312805176 C8.942999839782715,12.517999649047852 12.66100025177002,6.11299991607666 12.746000289916992,-0.36500000953674316 C12.85200023651123,-8.480999946594238 6.640999794006348,-16.524999618530273 -0.4740000069141388,-15.935999870300293 C-1.0269999504089355,-14.848999977111816 -1.5820000171661377,-13.763999938964844 -2.135999917984009,-12.677000045776367 C-2.135999917984009,-12.677000045776367 -0.3779999911785126,-13.944000244140625 -0.3779999911785126,-13.944000244140625z"></path></g><g opacity="1" transform="matrix(1,0,0,1,30.514999389648438,446.53399658203125)"><path fill="rgb(43,41,109)" fill-opacity="1" d=" M2.0829999446868896,-13.371999740600586 C-2.8489999771118164,-15.222999572753906 -8.484999656677246,-10.894000053405762 -9.822999954223633,-5.184000015258789 C-11.161999702453613,0.5249999761581421 -8.864999771118164,6.769999980926514 -5.065999984741211,10.79800033569336 C-2.6700000762939453,13.336999893188477 0.593999981880188,15.222000122070312 3.811000108718872,14.527999877929688 C6.808000087738037,13.881999969482422 9.206999778747559,11.029000282287598 10.1850004196167,7.742000102996826 C11.161999702453613,4.453999996185303 10.875,0.8180000185966492 9.961000442504883,-2.493000030517578 C8.704999923706055,-7.053999900817871 6.270999908447266,-11.1850004196167 3.0420000553131104,-14.241000175476074 C3.0420000553131104,-14.241000175476074 2.0829999446868896,-13.371999740600586 2.0829999446868896,-13.371999740600586z"></path></g><g opacity="1" transform="matrix(1,0,0,1,68.86699676513672,395.7149963378906)"><path fill="rgb(43,41,109)" fill-opacity="1" d=" M-2.1740000247955322,-13.255999565124512 C-5.348999977111816,-12.413000106811523 -7.73199987411499,-9.095999717712402 -8.432999610900879,-5.4730000495910645 C-9.133000373840332,-1.8489999771118164 -8.359000205993652,1.9809999465942383 -6.913000106811523,5.306000232696533 C-5.5329999923706055,8.484999656677246 -3.2790000438690186,11.508000373840332 -0.22100000083446503,12.180000305175781 C4.685999870300293,13.255999565124512 9.133000373840332,7.335000038146973 9.013999938964844,1.649999976158142 C8.892999649047852,-4.0370001792907715 5.554999828338623,-8.994000434875488 1.7929999828338623,-12.736000061035156 C1.7929999828338623,-12.736000061035156 -2.1740000247955322,-13.255999565124512 -2.1740000247955322,-13.255999565124512z"></path></g><g opacity="1" transform="matrix(1,0,0,1,491.9259948730469,112.84600067138672)"><path fill="rgb(43,41,109)" fill-opacity="1" d=" M14.864999771118164,17.11400032043457 C14.864999771118164,17.11400032043457 14.864999771118164,17.125 14.864999771118164,17.125 C14.46500015258789,18.143999099731445 13.954999923706055,19.0939998626709 13.324000358581543,19.974000930786133 C8.013999938964844,27.375 -0.9160000085830688,25.2450008392334 -6.114999771118164,18.15399932861328 C-8.845999717712402,14.434000015258789 -10.565999984741211,9.96500015258789 -12.236000061035156,5.564000129699707 C-13.545000076293945,2.1440000534057617 -14.864999771118164,-1.3960000276565552 -14.845999717712402,-5.046000003814697 C-14.824999809265137,-8.574999809265137 -13.545000076293945,-11.845999717712402 -12.28499984741211,-15.005000114440918 C-10.986000061035156,-18.275999069213867 -9.625,-21.625 -7.25600004196167,-23.965999603271484 C-4.875,-26.31599998474121 -1.1959999799728394,-27.375 1.6640000343322754,-25.516000747680664 C2.7950000762939453,-24.78499984741211 3.684000015258789,-23.68600082397461 4.49399995803833,-22.516000747680664 C4.49399995803833,-22.516000747680664 4.49399995803833,-22.5049991607666 4.49399995803833,-22.5049991607666 C7.834000110626221,-9.305999755859375 11.303999900817871,3.924999952316284 14.864999771118164,17.11400032043457z"></path></g><g opacity="1" transform="matrix(1,0,0,1,482.19000244140625,56.15999984741211)"><path fill="rgb(43,41,109)" fill-opacity="1" d=" M10.630000114440918,19.809999465942383 C8.020999908447266,21.138999938964844 4.829999923706055,21.839000701904297 2.819000005722046,21.030000686645508 C1.4299999475479126,20.458999633789062 0.3100000023841858,19.2189998626709 -0.699999988079071,17.979999542236328 C-5.050000190734863,12.600000381469727 -8.609999656677246,6.138999938964844 -9.619999885559082,-0.9300000071525574 C-10.630000114440918,-7.989999771118164 -8.729000091552734,-15.670000076293945 -3.819999933242798,-19.850000381469727 C-2.5199999809265137,-20.969999313354492 -0.9309999942779541,-21.84000015258789 0.7300000190734863,-21.750999450683594 C3.869999885559082,-7.980000019073486 7.179999828338623,5.888999938964844 10.630000114440918,19.809999465942383z"></path></g><g opacity="1" transform="matrix(1,0,0,1,458.7590026855469,82.91799926757812)"><path fill="rgb(43,41,109)" fill-opacity="1" d=" M0.8489999771118164,-17.51799964904785 C-0.4050000011920929,-17.983999252319336 -1.7610000371932983,-18.243000030517578 -3.005000114440918,-17.875999450683594 C-4.078000068664551,-17.562000274658203 -4.986999988555908,-16.809999465942383 -5.826000213623047,-16.01799964904785 C-14.937000274658203,-7.418000221252441 -15.977999687194824,18.243000030517578 1.2630000114440918,16.493000030517578 C15.977999687194824,14.99899959564209 13.71500015258789,-12.72599983215332 0.8489999771118164,-17.51799964904785z"></path></g><g opacity="1" transform="matrix(1,0,0,1,451.4670104980469,42.54100036621094)"><path fill="rgb(43,41,109)" fill-opacity="1" d=" M0.6610000133514404,13.958000183105469 C3.0739998817443848,14.439000129699707 5.243000030517578,12.571999549865723 6.821000099182129,10.576000213623047 C10.532999992370605,5.881999969482422 12.873000144958496,-1.0080000162124634 10.581000328063965,-7.035999774932861 C8.288000106811523,-13.067000389099121 1.5269999504089355,-16.325000762939453 -3.871999979019165,-14.48799991607666 C-9.272000312805176,-12.64799976348877 -12.873000144958496,-6.38100004196167 -12.819999694824219,0.06400000303983688 C-12.755999565124512,8.140999794006348 -6.339000225067139,16.325000762939453 0.800000011920929,15.944000244140625 C1.3339999914169312,14.878000259399414 1.8680000305175781,13.812999725341797 2.4010000228881836,12.748000144958496 C2.4010000228881836,12.748000144958496 0.6610000133514404,13.958000183105469 0.6610000133514404,13.958000183105469z"></path></g><g opacity="1" transform="matrix(1,0,0,1,469.260009765625,15.449999809265137)"><path fill="rgb(43,41,109)" fill-opacity="1" d=" M10.640000343322754,5.510000228881836 C9.369999885559082,11.100000381469727 3.8289999961853027,15.199999809265137 -1.1399999856948853,13.220999717712402 C-1.1399999856948853,13.220999717712402 -2.0799999237060547,14.060999870300293 -2.0799999237060547,14.060999870300293 C-5.400000095367432,10.930000305175781 -7.929999828338623,6.739999771118164 -9.289999961853027,2.1700000762939453 C-10.279999732971191,-1.149999976158142 -10.640000343322754,-4.7789998054504395 -9.729999542236328,-8.029000282287598 C-8.819999694824219,-11.269000053405762 -6.468999862670898,-14.039999961853027 -3.4690001010894775,-14.598999977111816 C-0.25099998712539673,-15.199999809265137 3.069999933242798,-13.229000091552734 5.539999961853027,-10.630000114440918 C6.340000152587891,-9.789999961853027 7.070000171661377,-8.859000205993652 7.730000019073486,-7.848999977111816 C7.739999771118164,-7.848999977111816 7.739999771118164,-7.840000152587891 7.739999771118164,-7.829999923706055 C8.680000305175781,-3.4000000953674316 9.649999618530273,1.0499999523162842 10.640000343322754,5.510000228881836z"></path></g><g opacity="1" transform="matrix(1,0,0,1,432.3999938964844,64.86699676513672)"><path fill="rgb(43,41,109)" fill-opacity="1" d=" M2.5260000228881836,13.291999816894531 C5.699999809265137,12.545000076293945 8.02400016784668,9.312000274658203 8.652000427246094,5.7270002365112305 C9.279000282287598,2.140000104904175 8.420000076293945,-1.6970000267028809 6.895999908447266,-5.046999931335449 C5.440999984741211,-8.25100040435791 3.1110000610351562,-11.321999549865723 0.02199999988079071,-12.079000473022461 C-4.934999942779541,-13.291999816894531 -9.279000282287598,-7.5269999504089355 -9.038000106811523,-1.8650000095367432 C-8.795999526977539,3.7990000247955322 -5.335000038146973,8.829000473022461 -1.472000002861023,12.663000106811523 C-1.472000002861023,12.663000106811523 2.5260000228881836,13.291999816894531 2.5260000228881836,13.291999816894531z"></path></g></g><g style="display: block;" transform="matrix(0.9961947202682495,0.08715574443340302,-0.08715574443340302,0.9961947202682495,509.3760986328125,1242.4276123046875)" opacity="1"><g opacity="1" transform="matrix(1,0,0,1,115.19599914550781,287.1650085449219)"><path fill="rgb(88,80,160)" fill-opacity="1" d=" M-34.59000015258789,-4.370999813079834 C-34.59000015258789,-4.370999813079834 26.180999755859375,16.68899917602539 26.180999755859375,16.68899917602539 C26.180999755859375,16.68899917602539 23.416000366210938,21.882999420166016 23.416000366210938,21.882999420166016 C26.76099967956543,15.942999839782715 30.476999282836914,10.232999801635742 34.59000015258789,4.669000148773193 C34.59000015258789,4.669000148773193 -29.486000061035156,-21.882999420166016 -29.486000061035156,-21.882999420166016 C-31.30500030517578,-16.062999725341797 -33.007999420166016,-10.222999572753906 -34.59000015258789,-4.370999813079834z"></path></g><g opacity="1" transform="matrix(1,0,0,1,88.3479995727539,448.3760070800781)"><path fill="rgb(88,80,160)" fill-opacity="1" d=" M-12.75,-145.18499755859375 C-17.15399932861328,-125.1969985961914 -20.05900001525879,-105.26399993896484 -21.19700050354004,-85.90299987792969 C-44.064998626708984,-39.21099853515625 -63.025001525878906,9.395000457763672 -77.7229995727539,59.26300048828125 C-83.18000030517578,77.77899932861328 -88.0979995727539,97.18000030517578 -84.83399963378906,116.20600128173828 C-83.21600341796875,125.63500213623047 -79.2239990234375,135.26800537109375 -70.05599975585938,139.64999389648438 C-65.11799621582031,142.00900268554688 -59.244998931884766,141.927001953125 -54.72100067138672,138.8489990234375 C-46.66999816894531,133.3730010986328 -47.45500183105469,122.41999816894531 -48.229000091552734,113.15899658203125 C-50.96900177001953,80.38300323486328 -45.78900146484375,47.474998474121094 -39.268001556396484,15.23900032043457 C-37.41400146484375,6.083000183105469 -35.22700119018555,-3.5399999618530273 -27.124000549316406,-9.409000396728516 C-23.395999908447266,-12.109000205993652 -18.615999221801758,-13.133999824523926 -14.236000061035156,-11.71399974822998 C-6.034999847412109,-9.057000160217285 -4.084000110626221,-0.017999999225139618 -3.36299991607666,7.861999988555908 C-0.36500000953674316,40.66600036621094 -5.793000221252441,74.20500183105469 -18.986000061035156,104.38800048828125 C-22.02400016784668,111.33799743652344 -25.52899932861328,118.36199951171875 -25.805999755859375,125.94200134277344 C-26.08300018310547,133.52200317382812 -22.017000198364258,141.91299438476562 -14.664999961853027,143.781005859375 C-9.133000373840332,145.18499755859375 -3.177000045776367,142.49899291992188 0.6930000185966492,138.30499267578125 C4.565000057220459,134.11099243164062 6.706999778747559,128.6300048828125 8.435999870300293,123.19100189208984 C22.617000579833984,78.5459976196289 14.258000373840332,29.565000534057617 25.22800064086914,-15.97599983215332 C26.06599998474121,-19.45599937438965 27.191999435424805,-23.219999313354492 32.018001556396484,-23.8700008392334 C34.625,-24.22100067138672 37.27899932861328,-23.468000411987305 39.415000915527344,-21.93199920654297 C53.529998779296875,-11.777000427246094 60.78300094604492,5.809000015258789 75.75599670410156,14.694999694824219 C77.08000183105469,15.480999946594238 78.56900024414062,16.009000778198242 80.10900115966797,16.007999420166016 C86.7750015258789,16.00200080871582 88.0979995727539,7.568999767303467 86.68000030517578,1.6260000467300415 C78.94599914550781,-30.80500030517578 40.46500015258789,-48.87300109863281 29.51799964904785,-79.27999877929688 C33.270999908447266,-99.56900024414062 38.768001556396484,-116.79199981689453 46.5369987487793,-132.3300018310547 C46.5369987487793,-132.3300018310547 44.81700134277344,-129.09800720214844 44.81700134277344,-129.09800720214844 C44.81700134277344,-129.09800720214844 -12.75,-145.18499755859375 -12.75,-145.18499755859375z"></path></g><g opacity="1" transform="matrix(1,0,0,1,288.2279968261719,140.75399780273438)"><path fill="rgb(88,80,160)" fill-opacity="1" d=" M193.5989990234375,-125.46299743652344 C192.41200256347656,-131.92799377441406 186.70899963378906,-136.6020050048828 180.14999389648438,-137.01800537109375 C180.14999389648438,-137.01800537109375 163.97300720214844,-138.04400634765625 163.97300720214844,-138.04400634765625 C129.25900268554688,-140.5030059814453 78.30799865722656,-131.9739990234375 29.878000259399414,-117.44100189208984 C29.878000259399414,-117.44100189208984 24.413000106811523,-116.58200073242188 17.92799949645996,-113.71900177001953 C-14.093000411987305,-103.35800170898438 -44.29600143432617,-90.4990005493164 -67.05500030517578,-76.61100006103516 C-119.63099670410156,-44.527000427246094 -168.0570068359375,27.16900062561035 -196.21499633789062,105.72200012207031 C-196.21499633789062,105.72200012207031 -129.99899291992188,140.5030059814453 -129.99899291992188,140.5030059814453 C-119.62200164794922,128.4080047607422 -107.1510009765625,116.76899719238281 -92.18699645996094,104.64800262451172 C-81.10399627685547,95.6709976196289 -56.707000732421875,79.125 -39.71699905395508,71.72899627685547 C-17.785999298095703,62.18199920654297 24.808000564575195,52.85300064086914 66.11100006103516,47.04499816894531 C118.71299743652344,39.645999908447266 160.2790069580078,-1.3250000476837158 168.83900451660156,-53.75199890136719 C168.83900451660156,-53.75199890136719 174.0189971923828,-85.46600341796875 174.0189971923828,-85.46600341796875 C176.40199279785156,-100.06099700927734 196.21600341796875,-111.19999694824219 193.5989990234375,-125.46299743652344z"></path></g><g opacity="1" transform="matrix(1,0,0,1,108.31500244140625,300.8630065917969)"><path fill="rgb(43,41,109)" fill-opacity="1" d=" M-27.708999633789062,-18.06800079345703 C-27.708999633789062,-18.06800079345703 -28.709999084472656,-18.415000915527344 -28.709999084472656,-18.415000915527344 C-28.709999084472656,-18.415000915527344 -33.0620002746582,2.2320001125335693 -33.0620002746582,2.2320001125335693 C-33.0620002746582,2.2320001125335693 -32.71699905395508,2.328000068664551 -32.71699905395508,2.328000068664551 C-32.71699905395508,2.328000068664551 24.85099983215332,18.415000915527344 24.85099983215332,18.415000915527344 C24.85099983215332,18.415000915527344 26.56999969482422,15.184000015258789 26.56999969482422,15.184000015258789 C26.56999969482422,15.184000015258789 30.297000885009766,8.1850004196167 30.297000885009766,8.1850004196167 C30.297000885009766,8.1850004196167 33.0620002746582,2.990999937057495 33.0620002746582,2.990999937057495 C33.0620002746582,2.990999937057495 -27.708999633789062,-18.06800079345703 -27.708999633789062,-18.06800079345703z"></path></g><g opacity="1" transform="matrix(1,0,0,1,121.78500366210938,268.92999267578125)"><path fill="rgb(43,41,109)" fill-opacity="1" d=" M-30.974000930786133,-23.086000442504883 C-30.974000930786133,-23.086000442504883 -36.7140007019043,-3.9110000133514404 -36.7140007019043,-3.9110000133514404 C-36.7140007019043,-3.9110000133514404 -36.07500076293945,-3.6470000743865967 -36.07500076293945,-3.6470000743865967 C-36.07500076293945,-3.6470000743865967 28.000999450683594,22.90399932861328 28.000999450683594,22.90399932861328 C28.000999450683594,22.90399932861328 28.43899917602539,23.086000442504883 28.43899917602539,23.086000442504883 C28.43899917602539,23.086000442504883 36.7140007019043,12.470000267028809 36.7140007019043,12.470000267028809 C36.7140007019043,12.470000267028809 36.444000244140625,12.32699966430664 36.444000244140625,12.32699966430664 C36.444000244140625,12.32699966430664 -29.773000717163086,-22.45400047302246 -29.773000717163086,-22.45400047302246 C-29.773000717163086,-22.45400047302246 -30.974000930786133,-23.086000442504883 -30.974000930786133,-23.086000442504883z"></path></g></g><g style="display: block;" transform="matrix(1,0,0,1,1369.349853515625,2100.448974609375)" opacity="1"><g opacity="1" transform="matrix(1,0,0,1,118.60199737548828,107.58899688720703)"><path fill="rgb(88,80,160)" fill-opacity="1" d=" M-57.57500076293945,-105.71099853515625 C-67.48699951171875,-104.6760025024414 -78.38500213623047,-101.04900360107422 -89.09600067138672,-93.25900268554688 C-117.0999984741211,-72.89199829101562 -118.35199737548828,-56.28499984741211 -118.35199737548828,-56.28499984741211 C-117.41500091552734,-55.016998291015625 -117.32599639892578,-36.79100036621094 -114.60199737548828,-15.038999557495117 C-112.11299896240234,4.839000225067139 -107.4260025024414,27.659000396728516 -97.86100006103516,43.20199966430664 C-77.8290023803711,75.75199890136719 116.4219970703125,107.33899688720703 117.47100067138672,82.01200103759766 C118.35199737548828,60.72800064086914 -42.000999450683594,-107.33899688720703 -57.57500076293945,-105.71099853515625z"></path></g></g><g style="display: block;" transform="matrix(1,0,0,1,730.5069580078125,2130.590087890625)" opacity="1"><g opacity="1" transform="matrix(1,0,0,1,141.12100219726562,101.09600067138672)"><path fill="rgb(88,80,160)" fill-opacity="1" d=" M112.64299774169922,-68.5479965209961 C112.64299774169922,-68.5479965209961 111.5979995727539,-70.12999725341797 109.55000305175781,-72.47599792480469 C101.99099731445312,-81.13800048828125 79.90799713134766,-100.84600067138672 38.46099853515625,-95.60399627685547 C-1.5859999656677246,-90.53500366210938 -15.706999778747559,-68.25199890136719 -15.706999778747559,-68.25199890136719 C-15.706999778747559,-68.25199890136719 -20.86199951171875,-64.01799774169922 -29.010000228881836,-56.95399856567383 C-58.334999084472656,-31.533000946044922 -126.51100158691406,30.608999252319336 -133.468994140625,64.64299774169922 C-140.87100219726562,100.84600067138672 115.53099822998047,40.41699981689453 126.25700378417969,19.058000564575195 C140.87100219726562,-10.036999702453613 112.64299774169922,-68.5479965209961 112.64299774169922,-68.5479965209961z"></path></g></g><g style="display: block;" transform="matrix(0.9875948429107666,-0.15702341496944427,0.15702341496944427,0.9875948429107666,1024.332275390625,312.9474182128906)" opacity="1"><g opacity="1" transform="matrix(1,0,0,1,44.375999450683594,27.552000045776367)"><path fill="rgb(43,41,109)" fill-opacity="1" d=" M17.340999603271484,17.722999572753906 C7.552000045776367,27.301000595092773 -8.147000312805176,27.128000259399414 -17.724000930786133,17.336999893188477 C-27.301000595092773,7.548999786376953 -27.12700080871582,-8.149999618530273 -17.339000701904297,-17.726999282836914 C-7.551000118255615,-27.302000045776367 8.14799976348877,-27.131000518798828 17.725000381469727,-17.341999053955078 C27.301000595092773,-7.551000118255615 27.1299991607666,8.145999908447266 17.340999603271484,17.722999572753906z"></path></g><g opacity="1" transform="matrix(1,0,0,1,19.740999221801758,112.25900268554688)"><path fill="rgb(43,41,109)" fill-opacity="1" d=" M-19.382999420166016,47.87900161743164 C-14.812999725341797,6.4029998779296875 -3.9800000190734863,-32.095001220703125 11.729000091552734,-66.22899627685547 C12.633999824523926,-68.19400024414062 14.954999923706055,-68.99400329589844 16.891000747680664,-68.06900024414062 C18.632999420166016,-67.23799896240234 19.490999221801758,-65.29900360107422 19.014999389648438,-63.492000579833984 C9.494999885559082,-27.36199951171875 5.817999839782715,12.656999588012695 9.50100040435791,54.69599914550781 C10.230999946594238,62.8489990234375 4.61299991607666,68.99299621582031 -3.5209999084472656,67.96199798583984 C-11.645000457763672,66.94100189208984 -18.985000610351562,58.84299850463867 -19.44499969482422,50.36199951171875 C-19.490999221801758,49.53099822998047 -19.46299934387207,48.64699935913086 -19.382999420166016,47.87900161743164z"></path></g></g><g style="display: block;" transform="matrix(0.9999998211860657,-0.0005788617418147624,0.002589769894257188,4.473896026611328,1094.9913330078125,2930.093017578125)" opacity="1"><g opacity="1" transform="matrix(0.9395999908447266,0,0,0.6486499905586243,150.75,-461.75)"><path fill="rgb(43,41,110)" fill-opacity="1" d=" M37.25,-4.75 C37.25,-4.75 37.25,4.75 37.25,4.75 C37.25,4.75 -37.25,4.75 -37.25,4.75 C-37.25,4.75 -37.25,-4.75 -37.25,-4.75 C-37.25,-4.75 37.25,-4.75 37.25,-4.75z"></path><path stroke-linecap="butt" stroke-linejoin="miter" fill-opacity="0" stroke-miterlimit="4" stroke="rgb(42,247,0)" stroke-opacity="1" stroke-width="0" d=" M37.25,-4.75 C37.25,-4.75 37.25,4.75 37.25,4.75 C37.25,4.75 -37.25,4.75 -37.25,4.75 C-37.25,4.75 -37.25,-4.75 -37.25,-4.75 C-37.25,-4.75 37.25,-4.75 37.25,-4.75z"></path></g></g><g style="display: block;" transform="matrix(0.9071344137191772,0.031136244535446167,-0.1534705013036728,4.471263885498047,647.8319091796875,2905.0703125)" opacity="1"><g opacity="1" transform="matrix(0.9395999908447266,0,0,0.6486499905586243,150.75,-461.75)"><path fill="rgb(43,41,110)" fill-opacity="1" d=" M37.25,-4.75 C37.25,-4.75 37.25,4.75 37.25,4.75 C37.25,4.75 -37.25,4.75 -37.25,4.75 C-37.25,4.75 -37.25,-4.75 -37.25,-4.75 C-37.25,-4.75 37.25,-4.75 37.25,-4.75z"></path><path stroke-linecap="butt" stroke-linejoin="miter" fill-opacity="0" stroke-miterlimit="4" stroke="rgb(42,247,0)" stroke-opacity="1" stroke-width="0" d=" M37.25,-4.75 C37.25,-4.75 37.25,4.75 37.25,4.75 C37.25,4.75 -37.25,4.75 -37.25,4.75 C-37.25,4.75 -37.25,-4.75 -37.25,-4.75 C-37.25,-4.75 37.25,-4.75 37.25,-4.75z"></path></g></g></g></g></svg>